<?xml version="1.0" standalone="no"?>
<!DOCTYPE svg PUBLIC "-//W3C//DTD SVG 20010904//EN"
 "http://www.w3.org/TR/2001/REC-SVG-20010904/DTD/svg10.dtd">
<svg version="1.0" xmlns="http://www.w3.org/2000/svg"
 width="640.000000pt" height="640.000000pt" viewBox="0 0 640.000000 640.000000"
 preserveAspectRatio="xMidYMid meet">
<metadata>
Created by potrace 1.14, written by Peter Selinger 2001-2017
</metadata>
<g transform="translate(0.000000,640.000000) scale(0.100000,-0.100000)"
fill="#000000" stroke="none">
<path d="M0 3200 l0 -3040 3155 0 3155 0 0 3040 0 3040 -3155 0 -3155 0 0
-3040z m1045 2200 c6 -1 118 0 250 0 132 0 249 0 260 0 11 0 115 0 230 0 116
0 215 -1 220 -1 6 0 118 1 250 1 132 0 249 0 260 0 11 0 331 0 710 0 380 0
695 0 700 -1 6 0 118 1 250 1 132 0 249 0 260 0 11 0 115 0 230 0 116 0 215
-1 220 -1 282 -1 531 1 560 4 11 2 33 0 49 -3 l29 -5 1 -2189 c1 -1203 -2
-2192 -5 -2198 -4 -6 -145 -10 -395 -9 -214 1 -396 2 -404 2 -8 0 -123 -1
-255 -1 -132 0 -249 0 -260 0 -11 0 -114 0 -230 0 -115 0 -214 1 -220 1 -5 0
-31 -1 -58 -3 l-47 -3 0 526 0 526 -487 -2 c-269 -1 -491 -2 -494 -3 -3 -1 -6
-234 -6 -517 0 -283 -2 -518 -6 -521 -5 -5 -137 -6 -372 -4 -11 0 -114 0 -230
0 -115 0 -214 1 -220 1 -5 0 -118 -1 -250 -1 -132 0 -249 0 -260 0 -11 0 -113
0 -227 -1 -113 -1 -212 2 -219 6 -6 5 -10 4 -6 -1 3 -5 -14 -8 -36 -8 l-42 1
-3 2201 c-2 2054 -1 2201 15 2204 9 2 64 2 122 0 58 -1 111 -2 116 -2z"/>
</g>
</svg>
