<svg version="1.0" xmlns="http://www.w3.org/2000/svg" width="853.333" height="853.333" viewBox="0 0 640 640"><path d="M0 320v304h631V16H0v304zm104.5-220c.6.1 11.8 0 25 0h49c11.6 0 21.5.1 22 .1.6 0 11.8-.1 25-.1h97c38 0 69.5 0 70 .1.6 0 11.8-.1 25-.1h49c11.6 0 21.5.1 22 .1 28.2.1 53.1-.1 56-.4 1.1-.2 3.3 0 4.9.3l2.9.5.1 218.9c.1 120.3-.2 219.2-.5 219.8-.4.6-14.5 1-39.5.9-21.4-.1-39.6-.2-40.4-.2-.8 0-12.3.1-25.5.1h-49c-11.5 0-21.4-.1-22-.1-.5 0-3.1.1-5.8.3l-4.7.3V435.3l-48.7.2c-26.9.1-49.1.2-49.4.3-.3.1-.6 23.4-.6 51.7 0 28.3-.2 51.8-.6 52.1-.5.5-13.7.6-37.2.4h-23c-11.5 0-21.4-.1-22-.1-.5 0-11.8.1-25 .1h-26c-1.1 0-11.3 0-22.7.1-11.3.1-21.2-.2-21.9-.6-.6-.5-1-.4-.6.1.3.5-1.4.8-3.6.8l-4.2-.1-.3-220.1c-.2-205.4-.1-220.1 1.5-220.4.9-.2 6.4-.2 12.2 0 5.8.1 11.1.2 11.6.2z"/></svg>